<svg width="55" height="32" viewBox="0 0 55 32" fill="none" xmlns="http://www.w3.org/2000/svg">
<path d="M3.36046e-05 12.7042C-0.000751548 13.7816 0.146367 14.8545 0.437757 15.8964C0.722473 16.9184 1.13944 17.9037 1.67928 18.8302C1.98127 19.3448 2.32242 19.8383 2.69998 20.3068C2.7147 20.3308 2.7255 20.3441 2.72893 20.3529L2.73237 20.3561C3.02645 20.7208 3.34061 21.0707 3.67357 21.4045C4.14579 21.8767 4.65638 22.3136 5.20069 22.7113C5.20069 22.7113 9.11713 25.3558 13.8148 25.3558L14.5857 25.359L17.8829 25.3793V16.8326H13.489C12.9103 16.8371 12.3371 16.728 11.8058 16.5124C11.282 16.3032 10.8055 16.0019 10.4018 15.6246C9.9993 15.2438 9.67959 14.7929 9.46063 14.2971C9.23019 13.7943 9.11433 13.2516 9.12056 12.7042C9.1186 12.4266 9.14657 12.1496 9.20399 11.8773C9.2059 11.8742 9.20703 11.8707 9.20742 11.8672C9.26209 11.6052 9.34698 11.3495 9.46063 11.1049C9.90562 10.1068 10.749 9.31263 11.8097 8.89277C12.3395 8.67696 12.9116 8.56802 13.489 8.573H17.8829C17.8835 6.29957 18.8442 4.11943 20.5538 2.51184C22.2633 0.904241 24.5817 0.000772004 26.9995 3.80931e-05H13.489C12.2769 -0.00277852 11.0701 0.150613 9.90228 0.455933C8.77657 0.751249 7.6963 1.18259 6.68855 1.73918C6.3264 1.9399 5.97554 2.15769 5.63498 2.38933L5.60651 2.40595C4.08131 3.44681 2.8021 4.77366 1.84956 6.30275C1.25834 7.25196 0.799662 8.26887 0.484865 9.32836C0.160401 10.4276 -0.00271443 11.5634 3.36046e-05 12.7042Z" fill="url(#paint0_linear)"/>
<path d="M1.46278 31H11.2203L12.7582 27.6546L13.8167 25.3544C9.119 25.3544 5.20256 22.7099 5.20256 22.7099L4.08077 25.2016L3.88448 25.634C3.88448 25.6372 3.88056 25.6372 3.88056 25.6405L1.46278 31Z" fill="url(#paint1_linear)"/>
<path d="M17.8829 8.57295V30.9986H26.9995V0C24.5817 0.000733913 22.2633 0.904204 20.5538 2.5118C18.8442 4.11939 17.8835 6.29952 17.8829 8.57295Z" fill="url(#paint2_linear)"/>
<g style="mix-blend-mode:multiply" opacity="0.16">
<g style="mix-blend-mode:multiply" opacity="0.16">
<path d="M17.8829 8.57295C17.8835 6.29952 18.8442 4.11939 20.5538 2.5118C22.2633 0.904204 24.5817 0.000733913 26.9995 0H18.7441C16.9019 1.62009 15.1319 4.27471 14.6942 8.57295H17.8829Z" fill="black"/>
</g>
</g>
<g style="mix-blend-mode:multiply" opacity="0.16">
<g style="mix-blend-mode:multiply" opacity="0.16">
<path d="M14.5862 16.8326V25.3576L17.8833 25.3779V16.8326H14.5862Z" fill="black"/>
</g>
</g>
<g style="mix-blend-mode:multiply" opacity="0.16">
<g style="mix-blend-mode:multiply" opacity="0.16">
<path d="M4.0793 25.2012C6.77944 26.5318 9.72528 27.3646 12.7582 27.6546L13.8167 25.3544C9.119 25.3544 5.20256 22.7099 5.20256 22.7099L4.0793 25.2012Z" fill="black"/>
</g>
</g>
<g style="mix-blend-mode:multiply" opacity="0.25">
<g style="mix-blend-mode:multiply" opacity="0.25">
<path d="M0.000480533 12.7042C-0.000304619 13.7815 0.146813 14.8544 0.438202 15.8963C0.722918 16.9183 1.13988 17.9036 1.67973 18.8301C1.98172 19.3448 2.32281 19.8383 2.70042 20.3067C2.63516 20.208 2.47617 19.9699 2.2627 19.6058C1.87263 18.9424 1.53747 18.2517 1.26016 17.54C0.872639 16.5437 0.606569 15.5093 0.467156 14.4567C0.394676 13.867 0.360914 13.2737 0.366067 12.6802C0.372446 12.0671 0.425592 11.4552 0.525061 10.8492C0.619426 10.2432 0.762323 9.64468 0.952477 9.05884C1.1362 8.49077 1.35727 7.93396 1.61446 7.39169C1.85967 6.88388 2.13526 6.3895 2.43985 5.91095C2.73428 5.45828 3.04049 5.03977 3.3413 4.66877C3.83045 4.06647 4.36897 3.50103 4.95185 2.97762C5.37485 2.59279 5.63542 2.38884 5.63542 2.38884L5.60696 2.40545C4.0817 3.44631 2.80249 4.77315 1.85001 6.30224C1.25874 7.25146 0.80006 8.26836 0.485312 9.32786C0.160798 10.4273 -0.00231657 11.5632 0.000480533 12.7042Z" fill="black"/>
</g>
</g>
<g style="mix-blend-mode:multiply" opacity="0.25">
<g style="mix-blend-mode:multiply" opacity="0.25">
<path d="M1.46288 31H8.74124C8.13324 30.9151 7.52867 30.8639 6.92067 30.8154C6.31267 30.767 5.7081 30.7338 5.105 30.7065C4.50191 30.6793 3.889 30.6659 3.28443 30.6553L2.02524 30.6452C2.14841 30.3595 2.2706 30.0734 2.3869 29.7841C2.57877 29.3319 2.75985 28.8793 2.93357 28.4197C3.10728 27.9601 3.27707 27.501 3.44048 27.0354C3.60389 26.5698 3.7516 26.1065 3.88213 25.6368L1.46288 31Z" fill="black"/>
</g>
</g>
<g style="mix-blend-mode:screen" opacity="0.7">
<g style="mix-blend-mode:screen" opacity="0.7">
<path d="M26.6197 15.5018C26.6231 16.4708 26.627 17.4398 26.6339 18.3913C26.6408 19.3428 26.656 20.2832 26.6668 21.1922C26.6918 23.0093 26.732 24.7042 26.7826 26.1572C26.8729 29.0642 26.9995 31 26.9995 31V0C26.9995 0 26.8729 1.93802 26.7826 4.84273C26.7335 6.29625 26.6918 7.99063 26.6668 9.80821C26.656 10.7168 26.6339 11.6562 26.6339 12.6091C26.6339 13.562 26.6241 14.5319 26.6197 15.5018Z" fill="white"/>
</g>
</g>
<g style="mix-blend-mode:multiply" opacity="0.25">
<g style="mix-blend-mode:multiply" opacity="0.25">
<path d="M8.95461 13.3714C8.9683 13.6258 9.01192 13.8781 9.08465 14.1235C9.12439 14.2527 9.17543 14.3958 9.22254 14.518C9.27735 14.6556 9.34129 14.7899 9.41392 14.92C9.56403 15.1961 9.74869 15.4543 9.96402 15.6892C10.1869 15.9305 10.437 16.1484 10.7099 16.3389C10.989 16.5225 11.2872 16.6788 11.6001 16.8054C11.9029 16.926 12.2201 17.0116 12.5447 17.0605C12.8462 17.1064 13.1524 17.119 13.457 17.0979C13.7318 17.0845 13.985 17.0605 14.224 17.0365C15.1686 16.9516 15.7987 16.8326 15.7987 16.8326H13.4894C12.9107 16.837 12.3375 16.728 11.8062 16.5124C11.2824 16.3031 10.8058 16.0018 10.4022 15.6246C9.99969 15.2438 9.67999 14.7929 9.46103 14.297C9.23059 13.7942 9.11473 13.2516 9.12096 12.7042C9.119 12.4266 9.14697 12.1496 9.20438 11.8773C9.14648 12.0015 9.10035 12.1303 9.06649 12.2621C8.97134 12.6247 8.9336 12.9985 8.95461 13.3714Z" fill="black"/>
</g>
</g>
<g style="mix-blend-mode:screen" opacity="0.7">
<g style="mix-blend-mode:screen" opacity="0.7">
<path d="M17.8834 8.57348V30.9991C17.8834 30.9991 17.9158 30.438 17.9521 29.4574C17.9884 28.4769 18.0502 27.0718 18.0895 25.3908C18.1385 23.7094 18.1763 21.7455 18.2018 19.6428C18.2126 18.5912 18.2234 17.5054 18.2342 16.3994C18.245 15.2933 18.2416 14.1739 18.245 13.054C18.2485 11.9341 18.2382 10.8077 18.2308 9.70537C18.2342 9.15719 18.2161 8.59793 18.2342 8.08205C18.2598 7.56871 18.3373 7.05883 18.4658 6.55933C18.7091 5.60651 19.1255 4.70035 19.6966 3.8807C20.6596 2.50763 22.0193 1.4215 23.6159 0.749883C24.1829 0.51064 24.775 0.328139 25.3825 0.205391C25.7758 0.125791 26.1734 0.0666372 26.5735 0.0282011C26.8523 0.0111281 27.0004 0.000976562 27.0004 0.000976562C24.5827 0.00171047 22.2643 0.905178 20.5547 2.51278C18.8452 4.12037 17.8845 6.30051 17.8839 8.57394L17.8834 8.57348Z" fill="white"/>
</g>
</g>
<path d="M54.0009 12.7042C54.0016 13.7816 53.8545 14.8545 53.5631 15.8964C53.2784 16.9184 52.8615 17.9037 52.3216 18.8302C52.0196 19.3448 51.6785 19.8383 51.3009 20.3068C51.2862 20.3308 51.2754 20.3441 51.272 20.3529L51.2685 20.3561C50.9744 20.7208 50.6603 21.0707 50.3273 21.4045C49.8551 21.8767 49.3445 22.3136 48.8002 22.7113C48.8002 22.7113 44.8838 25.3558 40.1861 25.3558L39.4152 25.359L36.118 25.3793V16.8326H40.5119C41.0905 16.8371 41.6638 16.728 42.1951 16.5124C42.7189 16.3032 43.1954 16.0019 43.5991 15.6246C44.0016 15.2438 44.3213 14.7929 44.5403 14.2971C44.7707 13.7943 44.8866 13.2516 44.8803 12.7042C44.8823 12.4266 44.8543 12.1496 44.7969 11.8773C44.795 11.8742 44.7939 11.8707 44.7935 11.8672C44.7388 11.6052 44.6539 11.3495 44.5403 11.1049C44.0953 10.1068 43.2519 9.31263 42.1912 8.89277C41.6614 8.67696 41.0893 8.56802 40.5119 8.573H36.118C36.1174 6.29957 35.1567 4.11943 33.4471 2.51184C31.7376 0.904242 29.4191 0.000772004 27.0014 3.80931e-05H40.5119C41.724 -0.00277852 42.9308 0.150613 44.0986 0.455933C45.2243 0.751249 46.3046 1.18259 47.3123 1.73918C47.6745 1.9399 48.0254 2.1577 48.3659 2.38933L48.3944 2.40595C49.9196 3.44681 51.1988 4.77366 52.1513 6.30275C52.7426 7.25196 53.2012 8.26887 53.516 9.32837C53.8405 10.4276 54.0036 11.5634 54.0009 12.7042Z" fill="url(#paint3_linear)"/>
<path d="M52.5381 31H42.7806L41.2427 27.6546L40.1842 25.3544C44.8819 25.3544 48.7983 22.7099 48.7983 22.7099L49.9201 25.2016L50.1164 25.634C50.1164 25.6372 50.1203 25.6372 50.1203 25.6405L52.5381 31Z" fill="url(#paint4_linear)"/>
<path d="M36.118 8.57295V30.9986H27.0014V0C29.4191 0.000733913 31.7376 0.904204 33.4471 2.5118C35.1567 4.11939 36.1174 6.29952 36.118 8.57295Z" fill="url(#paint5_linear)"/>
<g style="mix-blend-mode:multiply" opacity="0.16">
<g style="mix-blend-mode:multiply" opacity="0.16">
<path d="M36.118 8.57295C36.1174 6.29952 35.1567 4.11939 33.4471 2.5118C31.7376 0.904205 29.4191 0.000733913 27.0014 0H35.2568C37.099 1.62009 38.869 4.27471 39.3067 8.57295H36.118Z" fill="black"/>
</g>
</g>
<g style="mix-blend-mode:multiply" opacity="0.16">
<g style="mix-blend-mode:multiply" opacity="0.16">
<path d="M39.4147 16.8326V25.3576L36.1176 25.3779V16.8326H39.4147Z" fill="black"/>
</g>
</g>
<g style="mix-blend-mode:multiply" opacity="0.16">
<g style="mix-blend-mode:multiply" opacity="0.16">
<path d="M49.9216 25.2012C47.2215 26.5318 44.2756 27.3646 41.2427 27.6546L40.1842 25.3544C44.8819 25.3544 48.7983 22.7099 48.7983 22.7099L49.9216 25.2012Z" fill="black"/>
</g>
</g>
<g style="mix-blend-mode:multiply" opacity="0.25">
<g style="mix-blend-mode:multiply" opacity="0.25">
<path d="M54.0004 12.7042C54.0012 13.7815 53.8541 14.8544 53.5627 15.8963C53.278 16.9183 52.861 17.9036 52.3212 18.8301C52.0192 19.3448 51.6781 19.8383 51.3005 20.3067C51.3657 20.208 51.5247 19.9699 51.7382 19.6058C52.1283 18.9424 52.4634 18.2517 52.7407 17.54C53.1283 16.5437 53.3943 15.5093 53.5337 14.4567C53.6062 13.867 53.64 13.2737 53.6348 12.6802C53.6284 12.0671 53.5753 11.4552 53.4758 10.8492C53.3815 10.2432 53.2386 9.64468 53.0484 9.05884C52.8647 8.49077 52.6436 7.93396 52.3864 7.39169C52.1412 6.88388 51.8656 6.3895 51.561 5.91095C51.2666 5.45828 50.9604 5.03977 50.6596 4.66877C50.1704 4.06647 49.6319 3.50103 49.049 2.97762C48.626 2.59279 48.3655 2.38884 48.3655 2.38884L48.3939 2.40545C49.9192 3.44631 51.1984 4.77315 52.1509 6.30224C52.7422 7.25146 53.2008 8.26836 53.5156 9.32786C53.8401 10.4273 54.0032 11.5632 54.0004 12.7042Z" fill="black"/>
</g>
</g>
<g style="mix-blend-mode:multiply" opacity="0.25">
<g style="mix-blend-mode:multiply" opacity="0.25">
<path d="M52.538 31H45.2597C45.8677 30.9151 46.4722 30.8639 47.0802 30.8154C47.6882 30.767 48.2928 30.7338 48.8959 30.7065C49.499 30.6793 50.1119 30.6659 50.7165 30.6553L51.9757 30.6452C51.8525 30.3595 51.7303 30.0734 51.614 29.7841C51.4221 29.3319 51.241 28.8793 51.0673 28.4197C50.8936 27.9601 50.7238 27.501 50.5604 27.0354C50.397 26.5698 50.2493 26.1065 50.1188 25.6368L52.538 31Z" fill="black"/>
</g>
</g>
<g style="mix-blend-mode:screen" opacity="0.7">
<g style="mix-blend-mode:screen" opacity="0.7">
<path d="M27.3814 15.5018C27.3779 16.4708 27.374 17.4398 27.3671 18.3913C27.3603 19.3428 27.345 20.2832 27.3342 21.1922C27.3092 23.0093 27.269 24.7042 27.2184 26.1572C27.1281 29.0642 27.0014 31 27.0014 31V0C27.0014 0 27.1281 1.93802 27.2184 4.84273C27.2675 6.29625 27.3092 7.99063 27.3342 9.80821C27.345 10.7168 27.3671 11.6562 27.3671 12.6091C27.3671 13.562 27.377 14.5319 27.3814 15.5018Z" fill="white"/>
</g>
</g>
<g style="mix-blend-mode:multiply" opacity="0.25">
<g style="mix-blend-mode:multiply" opacity="0.25">
<path d="M45.0463 13.3714C45.0326 13.6258 44.989 13.8781 44.9162 14.1235C44.8765 14.2527 44.8255 14.3958 44.7784 14.518C44.7235 14.6556 44.6596 14.7899 44.587 14.92C44.4369 15.1961 44.2522 15.4543 44.0369 15.6892C43.814 15.9305 43.5639 16.1484 43.291 16.3389C43.0119 16.5225 42.7136 16.6788 42.4008 16.8054C42.098 16.926 41.7808 17.0116 41.4562 17.0605C41.1547 17.1064 40.8485 17.119 40.5439 17.0979C40.2691 17.0845 40.0159 17.0605 39.7769 17.0365C38.8323 16.9516 38.2022 16.8326 38.2022 16.8326H40.5115C41.0901 16.837 41.6634 16.728 42.1947 16.5124C42.7185 16.3031 43.195 16.0018 43.5987 15.6246C44.0012 15.2438 44.3209 14.7929 44.5399 14.297C44.7703 13.7942 44.8862 13.2516 44.8799 12.7042C44.8819 12.4266 44.8539 12.1496 44.7965 11.8773C44.8544 12.0015 44.9005 12.1303 44.9344 12.2621C45.0296 12.6247 45.0673 12.9985 45.0463 13.3714Z" fill="black"/>
</g>
</g>
<g style="mix-blend-mode:screen" opacity="0.7">
<g style="mix-blend-mode:screen" opacity="0.7">
<path d="M36.1175 8.57348V30.9991C36.1175 30.9991 36.0851 30.438 36.0488 29.4574C36.0125 28.4769 35.9507 27.0718 35.9114 25.3908C35.8624 23.7094 35.8246 21.7455 35.7991 19.6428C35.7883 18.5912 35.7775 17.5054 35.7667 16.3994C35.7559 15.2933 35.7593 14.1739 35.7559 13.054C35.7524 11.9341 35.7627 10.8077 35.7701 9.70537C35.7667 9.15719 35.7848 8.59793 35.7667 8.08205C35.7411 7.56871 35.6636 7.05883 35.535 6.55933C35.2918 5.60651 34.8754 4.70035 34.3043 3.8807C33.3413 2.50763 31.9816 1.4215 30.3849 0.749883C29.818 0.51064 29.2259 0.328139 28.6183 0.205391C28.2251 0.125791 27.8275 0.0666372 27.4274 0.0282011C27.1486 0.0111281 27.0004 0.000976562 27.0004 0.000976562C29.4182 0.00171047 31.7366 0.905178 33.4461 2.51278C35.1557 4.12037 36.1164 6.30051 36.117 8.57394L36.1175 8.57348Z" fill="white"/>
</g>
</g>
<defs>
<linearGradient id="paint0_linear" x1="0.404975" y1="12.6896" x2="23.3545" y2="12.6896" gradientUnits="userSpaceOnUse">
<stop stop-color="#C33764"/>
<stop offset="1" stop-color="#1D2671"/>
</linearGradient>
<linearGradient id="paint1_linear" x1="8.96158" y1="24.6249" x2="7.86925" y2="31.1359" gradientUnits="userSpaceOnUse">
<stop stop-color="#08ADF8"/>
<stop offset="1" stop-color="#4700FC"/>
</linearGradient>
<linearGradient id="paint2_linear" x1="22.4412" y1="0.991955" x2="22.4412" y2="31.0606" gradientUnits="userSpaceOnUse">
<stop stop-color="#FC7300"/>
<stop offset="1" stop-color="#F8007A"/>
</linearGradient>
<linearGradient id="paint3_linear" x1="53.5959" y1="12.6896" x2="30.6464" y2="12.6896" gradientUnits="userSpaceOnUse">
<stop stop-color="#C33764"/>
<stop offset="1" stop-color="#1D2671"/>
</linearGradient>
<linearGradient id="paint4_linear" x1="45.0393" y1="24.6249" x2="46.1316" y2="31.1359" gradientUnits="userSpaceOnUse">
<stop stop-color="#08ADF8"/>
<stop offset="1" stop-color="#4700FC"/>
</linearGradient>
<linearGradient id="paint5_linear" x1="31.5597" y1="0.991955" x2="31.5597" y2="31.0606" gradientUnits="userSpaceOnUse">
<stop stop-color="#FC7300"/>
<stop offset="1" stop-color="#F8007A"/>
</linearGradient>
</defs>
</svg>
